# xmcd
#
# Track frame offsets: 
#        150
#        20400
#        38907
#        57552
#        74490
#        85950
#        103815
#        122377
#        139457
#        159350
#
# Disc length: 2342 seconds
#
# Revision: 7
# Processed by: cddbd v1.5.2PL0 Copyright (c) Steve Scherf et al.
# Submitted via: ExactAudioCopy v1.0b6
#
DISCID=8b09240a
DTITLE=Europe - WINGS OF TOMORROW 2004 DSD Mastering MHCP-432
DYEAR=1984
DGENRE=Metal
TTITLE0=Stormwind
TTITLE1=Scream Of Anger
TTITLE2=Open Your Heart
TTITLE3=Treated Bad Again
TTITLE4=Aphasia
TTITLE5=Wings Of Tomorrow
TTITLE6=Wasted Time
TTITLE7=Lyin' Eyes
TTITLE8=Dreamer
TTITLE9=Dance The Night Away
EXTD=CD JP 2004 - Sony (MHCP 432) - UPC 4562109408683
EXTT0=
EXTT1=
EXTT2=
EXTT3=
EXTT4=
EXTT5=
EXTT6=
EXTT7=
EXTT8=
EXTT9=
PLAYORDER=
